<?xml version="1.0" encoding="UTF-8" standalone="no"?>
<!DOCTYPE svg PUBLIC "-//W3C//DTD SVG 1.1//EN"
 "http://www.w3.org/Graphics/SVG/1.1/DTD/svg11.dtd">
<!-- Generated by graphviz version 2.40.1 (20161225.0304)
 -->
<!-- Title: dependencies Pages: 1 -->
<svg width="830pt" height="211pt"
 viewBox="0.00 0.00 830.00 211.00" xmlns="http://www.w3.org/2000/svg" xmlns:xlink="http://www.w3.org/1999/xlink">
<g id="graph0" class="graph" transform="scale(1 1) rotate(0) translate(4 207)">
<title>dependencies</title>
<polygon fill="#ffffff" stroke="transparent" points="-4,4 -4,-207 826,-207 826,4 -4,4"/>
<text text-anchor="start" x="390.0091" y="-42.4" font-family="sans-serif" font-weight="bold" font-size="14.00" fill="#000000">Legend</text>
<polygon fill="#ffffb3" stroke="transparent" points="177,-10 177,-30 197,-30 197,-10 177,-10"/>
<text text-anchor="start" x="200.629" y="-15.4" font-family="sans-serif" font-size="14.00" fill="#000000"> &#160;Declarations</text>
<polygon fill="#8dd3c7" stroke="transparent" points="290,-10 290,-30 310,-30 310,-10 290,-10"/>
<text text-anchor="start" x="313.7251" y="-15.4" font-family="sans-serif" font-size="14.00" fill="#000000"> &#160;Module</text>
<polygon fill="#80b1d3" stroke="transparent" points="376,-10 376,-30 396,-30 396,-10 376,-10"/>
<text text-anchor="start" x="399.7812" y="-15.4" font-family="sans-serif" font-size="14.00" fill="#000000"> &#160;Bootstrap</text>
<polygon fill="#fdb462" stroke="transparent" points="473,-10 473,-30 493,-30 493,-10 473,-10"/>
<text text-anchor="start" x="496.6732" y="-15.4" font-family="sans-serif" font-size="14.00" fill="#000000"> &#160;Providers</text>
<polygon fill="#fb8072" stroke="transparent" points="569,-10 569,-30 589,-30 589,-10 569,-10"/>
<text text-anchor="start" x="592.7258" y="-15.4" font-family="sans-serif" font-size="14.00" fill="#000000"> &#160;Exports</text>
<g id="clust1" class="cluster">
<title>cluster_CoreModule</title>
<polygon fill="none" stroke="#000000" stroke-dasharray="1,5" points="8,-70 8,-195 814,-195 814,-70 8,-70"/>
</g>
<g id="clust6" class="cluster">
<title>cluster_CoreModule_providers</title>
<polygon fill="none" stroke="#000000" points="16,-78 16,-130 806,-130 806,-78 16,-78"/>
</g>
<!-- RecipesService -->
<g id="node1" class="node">
<title>RecipesService</title>
<ellipse fill="#fdb462" stroke="#000000" cx="727" cy="-104" rx="70.62" ry="18"/>
<text text-anchor="middle" x="727" y="-99.8" font-family="Times,serif" font-size="14.00" fill="#000000">RecipesService</text>
</g>
<!-- CoreModule -->
<g id="node6" class="node">
<title>CoreModule</title>
<polygon fill="#8dd3c7" stroke="#000000" points="454.2619,-187 451.2619,-191 430.2619,-191 427.2619,-187 367.7381,-187 367.7381,-151 454.2619,-151 454.2619,-187"/>
<text text-anchor="middle" x="411" y="-164.8" font-family="Times,serif" font-size="14.00" fill="#000000">CoreModule</text>
</g>
<!-- RecipesService&#45;&gt;CoreModule -->
<g id="edge1" class="edge">
<title>RecipesService&#45;&gt;CoreModule</title>
<path fill="none" stroke="#000000" d="M727,-122.2843C727,-143.3211 727,-175 727,-175 727,-175 464.2759,-175 464.2759,-175"/>
<polygon fill="#000000" stroke="#000000" points="464.2759,-171.5001 454.2759,-175 464.2758,-178.5001 464.2759,-171.5001"/>
</g>
<!-- AuthService -->
<g id="node2" class="node">
<title>AuthService</title>
<ellipse fill="#fdb462" stroke="#000000" cx="579" cy="-104" rx="59.1083" ry="18"/>
<text text-anchor="middle" x="579" y="-99.8" font-family="Times,serif" font-size="14.00" fill="#000000">AuthService</text>
</g>
<!-- AuthService&#45;&gt;CoreModule -->
<g id="edge2" class="edge">
<title>AuthService&#45;&gt;CoreModule</title>
<path fill="none" stroke="#000000" d="M579,-122.0225C579,-139.3734 579,-163 579,-163 579,-163 464.2642,-163 464.2642,-163"/>
<polygon fill="#000000" stroke="#000000" points="464.2642,-159.5001 454.2642,-163 464.2641,-166.5001 464.2642,-159.5001"/>
</g>
<!-- RecipeGuardService -->
<g id="node3" class="node">
<title>RecipeGuardService</title>
<ellipse fill="#fdb462" stroke="#000000" cx="411" cy="-104" rx="90.8685" ry="18"/>
<text text-anchor="middle" x="411" y="-99.8" font-family="Times,serif" font-size="14.00" fill="#000000">RecipeGuardService</text>
</g>
<!-- RecipeGuardService&#45;&gt;CoreModule -->
<g id="edge3" class="edge">
<title>RecipeGuardService&#45;&gt;CoreModule</title>
<path fill="none" stroke="#000000" d="M411,-122.1061C411,-122.1061 411,-140.991 411,-140.991"/>
<polygon fill="#000000" stroke="#000000" points="407.5001,-140.9909 411,-150.991 414.5001,-140.991 407.5001,-140.9909"/>
</g>
<!-- RecipesResolver -->
<g id="node4" class="node">
<title>RecipesResolver</title>
<ellipse fill="#fdb462" stroke="#000000" cx="226" cy="-104" rx="75.8586" ry="18"/>
<text text-anchor="middle" x="226" y="-99.8" font-family="Times,serif" font-size="14.00" fill="#000000">RecipesResolver</text>
</g>
<!-- RecipesResolver&#45;&gt;CoreModule -->
<g id="edge4" class="edge">
<title>RecipesResolver&#45;&gt;CoreModule</title>
<path fill="none" stroke="#000000" d="M226,-122.0225C226,-139.3734 226,-163 226,-163 226,-163 357.6257,-163 357.6257,-163"/>
<polygon fill="#000000" stroke="#000000" points="357.6258,-166.5001 367.6257,-163 357.6257,-159.5001 357.6258,-166.5001"/>
</g>
<!-- AuthGuard -->
<g id="node5" class="node">
<title>AuthGuard</title>
<ellipse fill="#fdb462" stroke="#000000" cx="78" cy="-104" rx="54.4566" ry="18"/>
<text text-anchor="middle" x="78" y="-99.8" font-family="Times,serif" font-size="14.00" fill="#000000">AuthGuard</text>
</g>
<!-- AuthGuard&#45;&gt;CoreModule -->
<g id="edge5" class="edge">
<title>AuthGuard&#45;&gt;CoreModule</title>
<path fill="none" stroke="#000000" d="M78,-122.2843C78,-143.3211 78,-175 78,-175 78,-175 357.4661,-175 357.4661,-175"/>
<polygon fill="#000000" stroke="#000000" points="357.4661,-178.5001 367.4661,-175 357.466,-171.5001 357.4661,-178.5001"/>
</g>
</g>
</svg>
