<?xml version="1.0" encoding="UTF-8" standalone="no"?>
<!DOCTYPE svg PUBLIC "-//W3C//DTD SVG 1.1//EN"
 "http://www.w3.org/Graphics/SVG/1.1/DTD/svg11.dtd">
<!-- Generated by graphviz version 2.40.1 (20161225.0304)
 -->
<!-- Title: dependencies Pages: 1 -->
<svg width="594pt" height="284pt"
 viewBox="0.00 0.00 594.00 284.00" xmlns="http://www.w3.org/2000/svg" xmlns:xlink="http://www.w3.org/1999/xlink">
<g id="graph0" class="graph" transform="scale(1 1) rotate(0) translate(4 280)">
<title>dependencies</title>
<polygon fill="#ffffff" stroke="transparent" points="-4,4 -4,-280 590,-280 590,4 -4,4"/>
<text text-anchor="start" x="272.0091" y="-42.4" font-family="sans-serif" font-weight="bold" font-size="14.00" fill="#000000">Legend</text>
<polygon fill="#ffffb3" stroke="transparent" points="59,-10 59,-30 79,-30 79,-10 59,-10"/>
<text text-anchor="start" x="82.629" y="-15.4" font-family="sans-serif" font-size="14.00" fill="#000000"> &#160;Declarations</text>
<polygon fill="#8dd3c7" stroke="transparent" points="172,-10 172,-30 192,-30 192,-10 172,-10"/>
<text text-anchor="start" x="195.7251" y="-15.4" font-family="sans-serif" font-size="14.00" fill="#000000"> &#160;Module</text>
<polygon fill="#80b1d3" stroke="transparent" points="258,-10 258,-30 278,-30 278,-10 258,-10"/>
<text text-anchor="start" x="281.7812" y="-15.4" font-family="sans-serif" font-size="14.00" fill="#000000"> &#160;Bootstrap</text>
<polygon fill="#fdb462" stroke="transparent" points="355,-10 355,-30 375,-30 375,-10 355,-10"/>
<text text-anchor="start" x="378.6732" y="-15.4" font-family="sans-serif" font-size="14.00" fill="#000000"> &#160;Providers</text>
<polygon fill="#fb8072" stroke="transparent" points="451,-10 451,-30 471,-30 471,-10 451,-10"/>
<text text-anchor="start" x="474.7258" y="-15.4" font-family="sans-serif" font-size="14.00" fill="#000000"> &#160;Exports</text>
<g id="clust1" class="cluster">
<title>cluster_SharedModule</title>
<polygon fill="none" stroke="#000000" stroke-dasharray="1,5" points="8,-70 8,-268 578,-268 578,-70 8,-70"/>
</g>
<g id="clust2" class="cluster">
<title>cluster_SharedModule_declarations</title>
<polygon fill="none" stroke="#000000" points="184,-78 184,-130 570,-130 570,-78 184,-78"/>
</g>
<g id="clust6" class="cluster">
<title>cluster_SharedModule_imports</title>
<polygon fill="none" stroke="#000000" points="16,-78 16,-130 176,-130 176,-78 16,-78"/>
</g>
<g id="clust7" class="cluster">
<title>cluster_SharedModule_exports</title>
<polygon fill="none" stroke="#000000" points="159,-208 159,-260 440,-260 440,-208 159,-208"/>
</g>
<!-- HeaderComponent -->
<g id="node1" class="node">
<title>HeaderComponent</title>
<polygon fill="#ffffb3" stroke="#000000" points="561.7437,-122 440.2563,-122 440.2563,-86 561.7437,-86 561.7437,-122"/>
<text text-anchor="middle" x="501" y="-99.8" font-family="Times,serif" font-size="14.00" fill="#000000">HeaderComponent</text>
</g>
<!-- SharedModule -->
<g id="node4" class="node">
<title>SharedModule</title>
<polygon fill="#8dd3c7" stroke="#000000" points="347.4231,-187 344.4231,-191 323.4231,-191 320.4231,-187 248.5769,-187 248.5769,-151 347.4231,-151 347.4231,-187"/>
<text text-anchor="middle" x="298" y="-164.8" font-family="Times,serif" font-size="14.00" fill="#000000">SharedModule</text>
</g>
<!-- HeaderComponent&#45;&gt;SharedModule -->
<g id="edge1" class="edge">
<title>HeaderComponent&#45;&gt;SharedModule</title>
<path fill="none" stroke="#000000" d="M501,-122.1061C501,-141.3391 501,-169 501,-169 501,-169 357.3998,-169 357.3998,-169"/>
<polygon fill="#000000" stroke="#000000" points="357.3998,-165.5001 347.3998,-169 357.3998,-172.5001 357.3998,-165.5001"/>
</g>
<!-- FooterComponent -->
<g id="node2" class="node">
<title>FooterComponent</title>
<polygon fill="#ffffb3" stroke="#000000" points="421.8809,-122 304.1191,-122 304.1191,-86 421.8809,-86 421.8809,-122"/>
<text text-anchor="middle" x="363" y="-99.8" font-family="Times,serif" font-size="14.00" fill="#000000">FooterComponent</text>
</g>
<!-- FooterComponent&#45;&gt;SharedModule -->
<g id="edge2" class="edge">
<title>FooterComponent&#45;&gt;SharedModule</title>
<path fill="none" stroke="#000000" d="M325.6354,-122.1061C325.6354,-122.1061 325.6354,-140.991 325.6354,-140.991"/>
<polygon fill="#000000" stroke="#000000" points="322.1354,-140.9909 325.6354,-150.991 329.1354,-140.991 322.1354,-140.9909"/>
</g>
<!-- WelcomePipe -->
<g id="node3" class="node">
<title>WelcomePipe</title>
<polygon fill="#ffffb3" stroke="#000000" points="286.0286,-122 191.9714,-122 191.9714,-86 286.0286,-86 286.0286,-122"/>
<text text-anchor="middle" x="239" y="-99.8" font-family="Times,serif" font-size="14.00" fill="#000000">WelcomePipe</text>
</g>
<!-- WelcomePipe&#45;&gt;SharedModule -->
<g id="edge3" class="edge">
<title>WelcomePipe&#45;&gt;SharedModule</title>
<path fill="none" stroke="#000000" d="M267.5263,-122.1061C267.5263,-122.1061 267.5263,-140.991 267.5263,-140.991"/>
<polygon fill="#000000" stroke="#000000" points="264.0264,-140.9909 267.5263,-150.991 271.0264,-140.991 264.0264,-140.9909"/>
</g>
<!-- HeaderComponent  -->
<g id="node6" class="node">
<title>HeaderComponent </title>
<polygon fill="#fb8072" stroke="#000000" points="431.7436,-252 306.2564,-252 306.2564,-216 431.7436,-216 431.7436,-252"/>
<text text-anchor="middle" x="369" y="-229.8" font-family="Times,serif" font-size="14.00" fill="#000000">HeaderComponent </text>
</g>
<!-- SharedModule&#45;&gt;HeaderComponent  -->
<g id="edge5" class="edge">
<title>SharedModule&#45;&gt;HeaderComponent </title>
<path fill="none" stroke="#000000" stroke-dasharray="5,2" d="M326.7947,-187.1061C326.7947,-187.1061 326.7947,-205.991 326.7947,-205.991"/>
<polygon fill="#000000" stroke="#000000" points="323.2948,-205.9909 326.7947,-215.991 330.2948,-205.991 323.2948,-205.9909"/>
</g>
<!-- FooterComponent  -->
<g id="node7" class="node">
<title>FooterComponent </title>
<polygon fill="#fb8072" stroke="#000000" points="288.8814,-252 167.1186,-252 167.1186,-216 288.8814,-216 288.8814,-252"/>
<text text-anchor="middle" x="228" y="-229.8" font-family="Times,serif" font-size="14.00" fill="#000000">FooterComponent </text>
</g>
<!-- SharedModule&#45;&gt;FooterComponent  -->
<g id="edge6" class="edge">
<title>SharedModule&#45;&gt;FooterComponent </title>
<path fill="none" stroke="#000000" stroke-dasharray="5,2" d="M268.7397,-187.1061C268.7397,-187.1061 268.7397,-205.991 268.7397,-205.991"/>
<polygon fill="#000000" stroke="#000000" points="265.2397,-205.9909 268.7397,-215.991 272.2397,-205.991 265.2397,-205.9909"/>
</g>
<!-- SharedRoutingModule -->
<g id="node5" class="node">
<title>SharedRoutingModule</title>
<polygon fill="#8dd3c7" stroke="#000000" points="167.5407,-122 164.5407,-126 143.5407,-126 140.5407,-122 24.4593,-122 24.4593,-86 167.5407,-86 167.5407,-122"/>
<text text-anchor="middle" x="96" y="-99.8" font-family="Times,serif" font-size="14.00" fill="#000000">SharedRoutingModule</text>
</g>
<!-- SharedRoutingModule&#45;&gt;SharedModule -->
<g id="edge4" class="edge">
<title>SharedRoutingModule&#45;&gt;SharedModule</title>
<path fill="none" stroke="#000000" d="M95.7698,-122.1061C95.7698,-141.3391 95.7698,-169 95.7698,-169 95.7698,-169 238.7875,-169 238.7875,-169"/>
<polygon fill="#000000" stroke="#000000" points="238.7876,-172.5001 248.7875,-169 238.7875,-165.5001 238.7876,-172.5001"/>
</g>
</g>
</svg>
