<?xml version="1.0" encoding="UTF-8" standalone="no"?>
<!DOCTYPE svg PUBLIC "-//W3C//DTD SVG 1.1//EN"
 "http://www.w3.org/Graphics/SVG/1.1/DTD/svg11.dtd">
<!-- Generated by graphviz version 2.40.1 (20161225.0304)
 -->
<!-- Title: dependencies Pages: 1 -->
<svg width="504pt" height="211pt"
 viewBox="0.00 0.00 504.00 211.00" xmlns="http://www.w3.org/2000/svg" xmlns:xlink="http://www.w3.org/1999/xlink">
<g id="graph0" class="graph" transform="scale(1 1) rotate(0) translate(4 207)">
<title>dependencies</title>
<polygon fill="#ffffff" stroke="transparent" points="-4,4 -4,-207 500,-207 500,4 -4,4"/>
<text text-anchor="start" x="227.0091" y="-42.4" font-family="sans-serif" font-weight="bold" font-size="14.00" fill="#000000">Legend</text>
<polygon fill="#ffffb3" stroke="transparent" points="14,-10 14,-30 34,-30 34,-10 14,-10"/>
<text text-anchor="start" x="37.629" y="-15.4" font-family="sans-serif" font-size="14.00" fill="#000000"> &#160;Declarations</text>
<polygon fill="#8dd3c7" stroke="transparent" points="127,-10 127,-30 147,-30 147,-10 127,-10"/>
<text text-anchor="start" x="150.7251" y="-15.4" font-family="sans-serif" font-size="14.00" fill="#000000"> &#160;Module</text>
<polygon fill="#80b1d3" stroke="transparent" points="213,-10 213,-30 233,-30 233,-10 213,-10"/>
<text text-anchor="start" x="236.7812" y="-15.4" font-family="sans-serif" font-size="14.00" fill="#000000"> &#160;Bootstrap</text>
<polygon fill="#fdb462" stroke="transparent" points="310,-10 310,-30 330,-30 330,-10 310,-10"/>
<text text-anchor="start" x="333.6732" y="-15.4" font-family="sans-serif" font-size="14.00" fill="#000000"> &#160;Providers</text>
<polygon fill="#fb8072" stroke="transparent" points="406,-10 406,-30 426,-30 426,-10 406,-10"/>
<text text-anchor="start" x="429.7258" y="-15.4" font-family="sans-serif" font-size="14.00" fill="#000000"> &#160;Exports</text>
<g id="clust1" class="cluster">
<title>cluster_MyrecipesModule</title>
<polygon fill="none" stroke="#000000" stroke-dasharray="1,5" points="17.5,-70 17.5,-195 478.5,-195 478.5,-70 17.5,-70"/>
</g>
<g id="clust2" class="cluster">
<title>cluster_MyrecipesModule_declarations</title>
<polygon fill="none" stroke="#000000" points="314.5,-78 314.5,-130 470.5,-130 470.5,-78 314.5,-78"/>
</g>
<g id="clust4" class="cluster">
<title>cluster_MyrecipesModule_imports</title>
<polygon fill="none" stroke="#000000" points="25.5,-78 25.5,-130 306.5,-130 306.5,-78 25.5,-78"/>
</g>
<!-- MyrecipesComponent -->
<g id="node1" class="node">
<title>MyrecipesComponent</title>
<polygon fill="#ffffb3" stroke="#000000" points="462.9172,-122 322.0828,-122 322.0828,-86 462.9172,-86 462.9172,-122"/>
<text text-anchor="middle" x="392.5" y="-99.8" font-family="Times,serif" font-size="14.00" fill="#000000">MyrecipesComponent</text>
</g>
<!-- MyrecipesModule -->
<g id="node2" class="node">
<title>MyrecipesModule</title>
<polygon fill="#8dd3c7" stroke="#000000" points="308.6346,-187 305.6346,-191 284.6346,-191 281.6346,-187 190.3654,-187 190.3654,-151 308.6346,-151 308.6346,-187"/>
<text text-anchor="middle" x="249.5" y="-164.8" font-family="Times,serif" font-size="14.00" fill="#000000">MyrecipesModule</text>
</g>
<!-- MyrecipesComponent&#45;&gt;MyrecipesModule -->
<g id="edge1" class="edge">
<title>MyrecipesComponent&#45;&gt;MyrecipesModule</title>
<path fill="none" stroke="#000000" d="M322.1502,-104C311.3803,-104 303.7641,-104 303.7641,-104 303.7641,-104 303.7641,-140.8939 303.7641,-140.8939"/>
<polygon fill="#000000" stroke="#000000" points="300.2641,-140.8938 303.7641,-150.8939 307.2641,-140.8939 300.2641,-140.8938"/>
</g>
<!-- SharedModule -->
<g id="node3" class="node">
<title>SharedModule</title>
<polygon fill="#8dd3c7" stroke="#000000" points="298.9231,-122 295.9231,-126 274.9231,-126 271.9231,-122 200.0769,-122 200.0769,-86 298.9231,-86 298.9231,-122"/>
<text text-anchor="middle" x="249.5" y="-99.8" font-family="Times,serif" font-size="14.00" fill="#000000">SharedModule</text>
</g>
<!-- SharedModule&#45;&gt;MyrecipesModule -->
<g id="edge2" class="edge">
<title>SharedModule&#45;&gt;MyrecipesModule</title>
<path fill="none" stroke="#000000" d="M249.5,-122.1061C249.5,-122.1061 249.5,-140.991 249.5,-140.991"/>
<polygon fill="#000000" stroke="#000000" points="246.0001,-140.9909 249.5,-150.991 253.0001,-140.991 246.0001,-140.9909"/>
</g>
<!-- RecipesRoutingModule -->
<g id="node4" class="node">
<title>RecipesRoutingModule</title>
<polygon fill="#8dd3c7" stroke="#000000" points="181.9832,-122 178.9832,-126 157.9832,-126 154.9832,-122 33.0168,-122 33.0168,-86 181.9832,-86 181.9832,-122"/>
<text text-anchor="middle" x="107.5" y="-99.8" font-family="Times,serif" font-size="14.00" fill="#000000">RecipesRoutingModule</text>
</g>
<!-- RecipesRoutingModule&#45;&gt;MyrecipesModule -->
<g id="edge3" class="edge">
<title>RecipesRoutingModule&#45;&gt;MyrecipesModule</title>
<path fill="none" stroke="#000000" d="M182.2902,-104C190.0898,-104 195.236,-104 195.236,-104 195.236,-104 195.236,-140.8939 195.236,-140.8939"/>
<polygon fill="#000000" stroke="#000000" points="191.736,-140.8938 195.236,-150.8939 198.736,-140.8939 191.736,-140.8938"/>
</g>
</g>
</svg>
