<?xml version="1.0" encoding="UTF-8" standalone="no"?>
<!DOCTYPE svg PUBLIC "-//W3C//DTD SVG 1.1//EN"
 "http://www.w3.org/Graphics/SVG/1.1/DTD/svg11.dtd">
<!-- Generated by graphviz version 2.40.1 (20161225.0304)
 -->
<!-- Title: dependencies Pages: 1 -->
<svg width="2016pt" height="211pt"
 viewBox="0.00 0.00 2016.00 211.00" xmlns="http://www.w3.org/2000/svg" xmlns:xlink="http://www.w3.org/1999/xlink">
<g id="graph0" class="graph" transform="scale(1 1) rotate(0) translate(4 207)">
<title>dependencies</title>
<polygon fill="#ffffff" stroke="transparent" points="-4,4 -4,-207 2012,-207 2012,4 -4,4"/>
<text text-anchor="start" x="983.0091" y="-42.4" font-family="sans-serif" font-weight="bold" font-size="14.00" fill="#000000">Legend</text>
<polygon fill="#ffffb3" stroke="transparent" points="770,-10 770,-30 790,-30 790,-10 770,-10"/>
<text text-anchor="start" x="793.629" y="-15.4" font-family="sans-serif" font-size="14.00" fill="#000000"> &#160;Declarations</text>
<polygon fill="#8dd3c7" stroke="transparent" points="883,-10 883,-30 903,-30 903,-10 883,-10"/>
<text text-anchor="start" x="906.7251" y="-15.4" font-family="sans-serif" font-size="14.00" fill="#000000"> &#160;Module</text>
<polygon fill="#80b1d3" stroke="transparent" points="969,-10 969,-30 989,-30 989,-10 969,-10"/>
<text text-anchor="start" x="992.7812" y="-15.4" font-family="sans-serif" font-size="14.00" fill="#000000"> &#160;Bootstrap</text>
<polygon fill="#fdb462" stroke="transparent" points="1066,-10 1066,-30 1086,-30 1086,-10 1066,-10"/>
<text text-anchor="start" x="1089.6732" y="-15.4" font-family="sans-serif" font-size="14.00" fill="#000000"> &#160;Providers</text>
<polygon fill="#fb8072" stroke="transparent" points="1162,-10 1162,-30 1182,-30 1182,-10 1162,-10"/>
<text text-anchor="start" x="1185.7258" y="-15.4" font-family="sans-serif" font-size="14.00" fill="#000000"> &#160;Exports</text>
<g id="clust1" class="cluster">
<title>cluster_RecipesModule</title>
<polygon fill="none" stroke="#000000" stroke-dasharray="1,5" points="8,-70 8,-195 2000,-195 2000,-70 8,-70"/>
</g>
<g id="clust2" class="cluster">
<title>cluster_RecipesModule_declarations</title>
<polygon fill="none" stroke="#000000" points="442,-78 442,-130 1992,-130 1992,-78 442,-78"/>
</g>
<g id="clust12" class="cluster">
<title>cluster_RecipesModule_imports</title>
<polygon fill="none" stroke="#000000" points="16,-78 16,-130 434,-130 434,-78 16,-78"/>
</g>
<!-- RecipesListComponent -->
<g id="node1" class="node">
<title>RecipesListComponent</title>
<polygon fill="#ffffb3" stroke="#000000" points="1983.927,-122 1836.073,-122 1836.073,-86 1983.927,-86 1983.927,-122"/>
<text text-anchor="middle" x="1910" y="-99.8" font-family="Times,serif" font-size="14.00" fill="#000000">RecipesListComponent</text>
</g>
<!-- RecipesModule -->
<g id="node10" class="node">
<title>RecipesModule</title>
<polygon fill="#8dd3c7" stroke="#000000" points="1057.8655,-187 1054.8655,-191 1033.8655,-191 1030.8655,-187 954.1345,-187 954.1345,-151 1057.8655,-151 1057.8655,-187"/>
<text text-anchor="middle" x="1006" y="-164.8" font-family="Times,serif" font-size="14.00" fill="#000000">RecipesModule</text>
</g>
<!-- RecipesListComponent&#45;&gt;RecipesModule -->
<g id="edge1" class="edge">
<title>RecipesListComponent&#45;&gt;RecipesModule</title>
<path fill="none" stroke="#000000" d="M1910,-122.0908C1910,-145.1328 1910,-182 1910,-182 1910,-182 1068.1796,-182 1068.1796,-182"/>
<polygon fill="#000000" stroke="#000000" points="1068.1796,-178.5001 1058.1796,-182 1068.1796,-185.5001 1068.1796,-178.5001"/>
</g>
<!-- RecipesFilteredComponent -->
<g id="node2" class="node">
<title>RecipesFilteredComponent</title>
<polygon fill="#ffffb3" stroke="#000000" points="1818.6923,-122 1649.3077,-122 1649.3077,-86 1818.6923,-86 1818.6923,-122"/>
<text text-anchor="middle" x="1734" y="-99.8" font-family="Times,serif" font-size="14.00" fill="#000000">RecipesFilteredComponent</text>
</g>
<!-- RecipesFilteredComponent&#45;&gt;RecipesModule -->
<g id="edge2" class="edge">
<title>RecipesFilteredComponent&#45;&gt;RecipesModule</title>
<path fill="none" stroke="#000000" d="M1734,-122.2843C1734,-143.3211 1734,-175 1734,-175 1734,-175 1068.0638,-175 1068.0638,-175"/>
<polygon fill="#000000" stroke="#000000" points="1068.0638,-171.5001 1058.0638,-175 1068.0638,-178.5001 1068.0638,-171.5001"/>
</g>
<!-- RecipeComponent -->
<g id="node3" class="node">
<title>RecipeComponent</title>
<polygon fill="#ffffb3" stroke="#000000" points="1631.2036,-122 1510.7964,-122 1510.7964,-86 1631.2036,-86 1631.2036,-122"/>
<text text-anchor="middle" x="1571" y="-99.8" font-family="Times,serif" font-size="14.00" fill="#000000">RecipeComponent</text>
</g>
<!-- RecipeComponent&#45;&gt;RecipesModule -->
<g id="edge3" class="edge">
<title>RecipeComponent&#45;&gt;RecipesModule</title>
<path fill="none" stroke="#000000" d="M1571,-122.1061C1571,-141.3391 1571,-169 1571,-169 1571,-169 1067.8892,-169 1067.8892,-169"/>
<polygon fill="#000000" stroke="#000000" points="1067.8892,-165.5001 1057.8892,-169 1067.8892,-172.5001 1067.8892,-165.5001"/>
</g>
<!-- RecipeDetailsComponent -->
<g id="node4" class="node">
<title>RecipeDetailsComponent</title>
<polygon fill="#ffffb3" stroke="#000000" points="1492.8557,-122 1333.1443,-122 1333.1443,-86 1492.8557,-86 1492.8557,-122"/>
<text text-anchor="middle" x="1413" y="-99.8" font-family="Times,serif" font-size="14.00" fill="#000000">RecipeDetailsComponent</text>
</g>
<!-- RecipeDetailsComponent&#45;&gt;RecipesModule -->
<g id="edge4" class="edge">
<title>RecipeDetailsComponent&#45;&gt;RecipesModule</title>
<path fill="none" stroke="#000000" d="M1413,-122.0225C1413,-139.3734 1413,-163 1413,-163 1413,-163 1067.9602,-163 1067.9602,-163"/>
<polygon fill="#000000" stroke="#000000" points="1067.9603,-159.5001 1057.9602,-163 1067.9602,-166.5001 1067.9603,-159.5001"/>
</g>
<!-- SummaryPipe -->
<g id="node5" class="node">
<title>SummaryPipe</title>
<polygon fill="#ffffb3" stroke="#000000" points="1314.8274,-122 1219.1726,-122 1219.1726,-86 1314.8274,-86 1314.8274,-122"/>
<text text-anchor="middle" x="1267" y="-99.8" font-family="Times,serif" font-size="14.00" fill="#000000">SummaryPipe</text>
</g>
<!-- SummaryPipe&#45;&gt;RecipesModule -->
<g id="edge5" class="edge">
<title>SummaryPipe&#45;&gt;RecipesModule</title>
<path fill="none" stroke="#000000" d="M1267,-122.2396C1267,-137.5706 1267,-157 1267,-157 1267,-157 1067.8773,-157 1067.8773,-157"/>
<polygon fill="#000000" stroke="#000000" points="1067.8773,-153.5001 1057.8773,-157 1067.8772,-160.5001 1067.8773,-153.5001"/>
</g>
<!-- InputYearValidationDirective -->
<g id="node6" class="node">
<title>InputYearValidationDirective</title>
<polygon fill="#ffffb3" stroke="#000000" points="1200.9286,-122 1017.0714,-122 1017.0714,-86 1200.9286,-86 1200.9286,-122"/>
<text text-anchor="middle" x="1109" y="-99.8" font-family="Times,serif" font-size="14.00" fill="#000000">InputYearValidationDirective</text>
</g>
<!-- InputYearValidationDirective&#45;&gt;RecipesModule -->
<g id="edge6" class="edge">
<title>InputYearValidationDirective&#45;&gt;RecipesModule</title>
<path fill="none" stroke="#000000" d="M1037.4842,-122.1061C1037.4842,-122.1061 1037.4842,-140.991 1037.4842,-140.991"/>
<polygon fill="#000000" stroke="#000000" points="1033.9843,-140.9909 1037.4842,-150.991 1040.9843,-140.991 1033.9843,-140.9909"/>
</g>
<!-- InputStringValidationDirective -->
<g id="node7" class="node">
<title>InputStringValidationDirective</title>
<polygon fill="#ffffb3" stroke="#000000" points="999.4566,-122 808.5434,-122 808.5434,-86 999.4566,-86 999.4566,-122"/>
<text text-anchor="middle" x="904" y="-99.8" font-family="Times,serif" font-size="14.00" fill="#000000">InputStringValidationDirective</text>
</g>
<!-- InputStringValidationDirective&#45;&gt;RecipesModule -->
<g id="edge7" class="edge">
<title>InputStringValidationDirective&#45;&gt;RecipesModule</title>
<path fill="none" stroke="#000000" d="M976.7728,-122.1061C976.7728,-122.1061 976.7728,-140.991 976.7728,-140.991"/>
<polygon fill="#000000" stroke="#000000" points="973.2729,-140.9909 976.7728,-150.991 980.2729,-140.991 973.2729,-140.9909"/>
</g>
<!-- InputFormatDirective -->
<g id="node8" class="node">
<title>InputFormatDirective</title>
<polygon fill="#ffffb3" stroke="#000000" points="790.073,-122 651.927,-122 651.927,-86 790.073,-86 790.073,-122"/>
<text text-anchor="middle" x="721" y="-99.8" font-family="Times,serif" font-size="14.00" fill="#000000">InputFormatDirective</text>
</g>
<!-- InputFormatDirective&#45;&gt;RecipesModule -->
<g id="edge8" class="edge">
<title>InputFormatDirective&#45;&gt;RecipesModule</title>
<path fill="none" stroke="#000000" d="M721,-122.2396C721,-137.5706 721,-157 721,-157 721,-157 944.058,-157 944.058,-157"/>
<polygon fill="#000000" stroke="#000000" points="944.058,-160.5001 954.058,-157 944.058,-153.5001 944.058,-160.5001"/>
</g>
<!-- RecipesFavouritesComponent -->
<g id="node9" class="node">
<title>RecipesFavouritesComponent</title>
<polygon fill="#ffffb3" stroke="#000000" points="634.2464,-122 449.7536,-122 449.7536,-86 634.2464,-86 634.2464,-122"/>
<text text-anchor="middle" x="542" y="-99.8" font-family="Times,serif" font-size="14.00" fill="#000000">RecipesFavouritesComponent</text>
</g>
<!-- RecipesFavouritesComponent&#45;&gt;RecipesModule -->
<g id="edge9" class="edge">
<title>RecipesFavouritesComponent&#45;&gt;RecipesModule</title>
<path fill="none" stroke="#000000" d="M542,-122.0225C542,-139.3734 542,-163 542,-163 542,-163 944.1239,-163 944.1239,-163"/>
<polygon fill="#000000" stroke="#000000" points="944.124,-166.5001 954.1239,-163 944.1239,-159.5001 944.124,-166.5001"/>
</g>
<!-- SharedModule -->
<g id="node11" class="node">
<title>SharedModule</title>
<polygon fill="#8dd3c7" stroke="#000000" points="426.4231,-122 423.4231,-126 402.4231,-126 399.4231,-122 327.5769,-122 327.5769,-86 426.4231,-86 426.4231,-122"/>
<text text-anchor="middle" x="377" y="-99.8" font-family="Times,serif" font-size="14.00" fill="#000000">SharedModule</text>
</g>
<!-- SharedModule&#45;&gt;RecipesModule -->
<g id="edge10" class="edge">
<title>SharedModule&#45;&gt;RecipesModule</title>
<path fill="none" stroke="#000000" d="M377,-122.1061C377,-141.3391 377,-169 377,-169 377,-169 943.9912,-169 943.9912,-169"/>
<polygon fill="#000000" stroke="#000000" points="943.9912,-172.5001 953.9912,-169 943.9911,-165.5001 943.9912,-172.5001"/>
</g>
<!-- RecipesRoutingModule -->
<g id="node12" class="node">
<title>RecipesRoutingModule</title>
<polygon fill="#8dd3c7" stroke="#000000" points="309.4832,-122 306.4832,-126 285.4832,-126 282.4832,-122 160.5168,-122 160.5168,-86 309.4832,-86 309.4832,-122"/>
<text text-anchor="middle" x="235" y="-99.8" font-family="Times,serif" font-size="14.00" fill="#000000">RecipesRoutingModule</text>
</g>
<!-- RecipesRoutingModule&#45;&gt;RecipesModule -->
<g id="edge11" class="edge">
<title>RecipesRoutingModule&#45;&gt;RecipesModule</title>
<path fill="none" stroke="#000000" d="M235,-122.2843C235,-143.3211 235,-175 235,-175 235,-175 943.9141,-175 943.9141,-175"/>
<polygon fill="#000000" stroke="#000000" points="943.9142,-178.5001 953.9141,-175 943.9141,-171.5001 943.9142,-178.5001"/>
</g>
<!-- MyrecipesModule -->
<g id="node13" class="node">
<title>MyrecipesModule</title>
<polygon fill="#8dd3c7" stroke="#000000" points="142.1346,-122 139.1346,-126 118.1346,-126 115.1346,-122 23.8654,-122 23.8654,-86 142.1346,-86 142.1346,-122"/>
<text text-anchor="middle" x="83" y="-99.8" font-family="Times,serif" font-size="14.00" fill="#000000">MyrecipesModule</text>
</g>
<!-- MyrecipesModule&#45;&gt;RecipesModule -->
<g id="edge12" class="edge">
<title>MyrecipesModule&#45;&gt;RecipesModule</title>
<path fill="none" stroke="#000000" d="M83,-122.0908C83,-145.1328 83,-182 83,-182 83,-182 944.0648,-182 944.0648,-182"/>
<polygon fill="#000000" stroke="#000000" points="944.0648,-185.5001 954.0648,-182 944.0648,-178.5001 944.0648,-185.5001"/>
</g>
</g>
</svg>
